<?xml version="1.0" encoding="UTF-8" ?>
<svg version="1.1" width="342" height="63" xmlns="http://www.w3.org/2000/svg" shape-rendering="crispEdges">
<rect x="0" y="0" width="36" height="9" fill="#F1FAF5" />
<rect x="36" y="0" width="9" height="9" fill="#102D26" />
<rect x="45" y="0" width="36" height="9" fill="#F1FAF5" />
<rect x="81" y="0" width="9" height="9" fill="#102D26" />
<rect x="90" y="0" width="9" height="9" fill="#F1FAF5" />
<rect x="99" y="0" width="9" height="9" fill="#102D26" />
<rect x="108" y="0" width="9" height="63" fill="#F1FAF5" />
<rect x="117" y="0" width="9" height="9" fill="#102D26" />
<rect x="126" y="0" width="9" height="27" fill="#F1FAF5" />
<rect x="135" y="0" width="9" height="9" fill="#102D26" />
<rect x="144" y="0" width="9" height="9" fill="#F1FAF5" />
<rect x="153" y="0" width="9" height="9" fill="#102D26" />
<rect x="162" y="0" width="9" height="9" fill="#F1FAF5" />
<rect x="171" y="0" width="9" height="9" fill="#102D26" />
<rect x="180" y="0" width="9" height="9" fill="#F1FAF5" />
<rect x="189" y="0" width="9" height="9" fill="#102D26" />
<rect x="198" y="0" width="9" height="9" fill="#F1FAF5" />
<rect x="207" y="0" width="9" height="27" fill="#102D26" />
<rect x="216" y="0" width="9" height="9" fill="#F1FAF5" />
<rect x="225" y="0" width="9" height="63" fill="#102D26" />
<rect x="234" y="0" width="9" height="9" fill="#F1FAF5" />
<rect x="243" y="0" width="9" height="9" fill="#102D26" />
<rect x="252" y="0" width="9" height="9" fill="#F1FAF5" />
<rect x="261" y="0" width="36" height="9" fill="#102D26" />
<rect x="297" y="0" width="9" height="9" fill="#F1FAF5" />
<rect x="306" y="0" width="36" height="9" fill="#102D26" />
<rect x="0" y="9" width="9" height="54" fill="#F1FAF5" />
<rect x="9" y="9" width="9" height="9" fill="#102D26" />
<rect x="18" y="9" width="45" height="18" fill="#F1FAF5" />
<rect x="63" y="9" width="9" height="9" fill="#102D26" />
<rect x="72" y="9" width="18" height="9" fill="#F1FAF5" />
<rect x="90" y="9" width="9" height="9" fill="#102D26" />
<rect x="99" y="9" width="9" height="9" fill="#F1FAF5" />
<rect x="117" y="9" width="9" height="9" fill="#F1FAF5" />
<rect x="135" y="9" width="9" height="9" fill="#F1FAF5" />
<rect x="144" y="9" width="9" height="9" fill="#102D26" />
<rect x="153" y="9" width="9" height="9" fill="#F1FAF5" />
<rect x="162" y="9" width="9" height="9" fill="#102D26" />
<rect x="171" y="9" width="9" height="9" fill="#F1FAF5" />
<rect x="180" y="9" width="9" height="9" fill="#102D26" />
<rect x="189" y="9" width="9" height="9" fill="#F1FAF5" />
<rect x="198" y="9" width="9" height="9" fill="#102D26" />
<rect x="216" y="9" width="9" height="9" fill="#102D26" />
<rect x="234" y="9" width="9" height="9" fill="#102D26" />
<rect x="243" y="9" width="9" height="9" fill="#F1FAF5" />
<rect x="252" y="9" width="18" height="9" fill="#102D26" />
<rect x="270" y="9" width="9" height="9" fill="#F1FAF5" />
<rect x="279" y="9" width="45" height="18" fill="#102D26" />
<rect x="324" y="9" width="9" height="9" fill="#F1FAF5" />
<rect x="333" y="9" width="9" height="54" fill="#102D26" />
<rect x="9" y="18" width="9" height="27" fill="#F1FAF5" />
<rect x="63" y="18" width="18" height="9" fill="#F1FAF5" />
<rect x="81" y="18" width="9" height="9" fill="#102D26" />
<rect x="90" y="18" width="9" height="27" fill="#F1FAF5" />
<rect x="99" y="18" width="9" height="9" fill="#102D26" />
<rect x="117" y="18" width="9" height="9" fill="#102D26" />
<rect x="135" y="18" width="9" height="9" fill="#102D26" />
<rect x="144" y="18" width="9" height="27" fill="#F1FAF5" />
<rect x="153" y="18" width="9" height="9" fill="#102D26" />
<rect x="162" y="18" width="9" height="9" fill="#F1FAF5" />
<rect x="171" y="18" width="9" height="9" fill="#102D26" />
<rect x="180" y="18" width="9" height="9" fill="#F1FAF5" />
<rect x="189" y="18" width="9" height="27" fill="#102D26" />
<rect x="198" y="18" width="9" height="9" fill="#F1FAF5" />
<rect x="216" y="18" width="9" height="9" fill="#F1FAF5" />
<rect x="234" y="18" width="9" height="9" fill="#F1FAF5" />
<rect x="243" y="18" width="9" height="27" fill="#102D26" />
<rect x="252" y="18" width="9" height="9" fill="#F1FAF5" />
<rect x="261" y="18" width="18" height="9" fill="#102D26" />
<rect x="324" y="18" width="9" height="27" fill="#102D26" />
<rect x="18" y="27" width="18" height="36" fill="#F1FAF5" />
<rect x="36" y="27" width="9" height="9" fill="#102D26" />
<rect x="45" y="27" width="18" height="36" fill="#F1FAF5" />
<rect x="63" y="27" width="9" height="9" fill="#102D26" />
<rect x="72" y="27" width="18" height="9" fill="#F1FAF5" />
<rect x="99" y="27" width="9" height="9" fill="#F1FAF5" />
<rect x="117" y="27" width="9" height="9" fill="#F1FAF5" />
<rect x="126" y="27" width="9" height="9" fill="#102D26" />
<rect x="135" y="27" width="9" height="9" fill="#F1FAF5" />
<rect x="153" y="27" width="9" height="9" fill="#F1FAF5" />
<rect x="162" y="27" width="9" height="9" fill="#102D26" />
<rect x="171" y="27" width="9" height="9" fill="#F1FAF5" />
<rect x="180" y="27" width="9" height="9" fill="#102D26" />
<rect x="198" y="27" width="9" height="9" fill="#102D26" />
<rect x="207" y="27" width="9" height="9" fill="#F1FAF5" />
<rect x="216" y="27" width="9" height="9" fill="#102D26" />
<rect x="234" y="27" width="9" height="9" fill="#102D26" />
<rect x="252" y="27" width="18" height="9" fill="#102D26" />
<rect x="270" y="27" width="9" height="9" fill="#F1FAF5" />
<rect x="279" y="27" width="18" height="36" fill="#102D26" />
<rect x="297" y="27" width="9" height="9" fill="#F1FAF5" />
<rect x="306" y="27" width="18" height="36" fill="#102D26" />
<rect x="36" y="36" width="9" height="18" fill="#F1FAF5" />
<rect x="63" y="36" width="18" height="9" fill="#F1FAF5" />
<rect x="81" y="36" width="9" height="9" fill="#102D26" />
<rect x="99" y="36" width="9" height="9" fill="#102D26" />
<rect x="117" y="36" width="9" height="9" fill="#102D26" />
<rect x="126" y="36" width="9" height="27" fill="#F1FAF5" />
<rect x="135" y="36" width="9" height="9" fill="#102D26" />
<rect x="153" y="36" width="9" height="9" fill="#102D26" />
<rect x="162" y="36" width="9" height="9" fill="#F1FAF5" />
<rect x="171" y="36" width="9" height="9" fill="#102D26" />
<rect x="180" y="36" width="9" height="9" fill="#F1FAF5" />
<rect x="198" y="36" width="9" height="9" fill="#F1FAF5" />
<rect x="207" y="36" width="9" height="27" fill="#102D26" />
<rect x="216" y="36" width="9" height="9" fill="#F1FAF5" />
<rect x="234" y="36" width="9" height="9" fill="#F1FAF5" />
<rect x="252" y="36" width="9" height="9" fill="#F1FAF5" />
<rect x="261" y="36" width="18" height="9" fill="#102D26" />
<rect x="297" y="36" width="9" height="18" fill="#102D26" />
<rect x="9" y="45" width="9" height="9" fill="#102D26" />
<rect x="63" y="45" width="9" height="9" fill="#102D26" />
<rect x="72" y="45" width="18" height="9" fill="#F1FAF5" />
<rect x="90" y="45" width="9" height="9" fill="#102D26" />
<rect x="99" y="45" width="9" height="9" fill="#F1FAF5" />
<rect x="117" y="45" width="9" height="9" fill="#F1FAF5" />
<rect x="135" y="45" width="9" height="9" fill="#F1FAF5" />
<rect x="144" y="45" width="9" height="9" fill="#102D26" />
<rect x="153" y="45" width="9" height="9" fill="#F1FAF5" />
<rect x="162" y="45" width="9" height="9" fill="#102D26" />
<rect x="171" y="45" width="9" height="9" fill="#F1FAF5" />
<rect x="180" y="45" width="9" height="9" fill="#102D26" />
<rect x="189" y="45" width="9" height="9" fill="#F1FAF5" />
<rect x="198" y="45" width="9" height="9" fill="#102D26" />
<rect x="216" y="45" width="9" height="9" fill="#102D26" />
<rect x="234" y="45" width="9" height="9" fill="#102D26" />
<rect x="243" y="45" width="9" height="9" fill="#F1FAF5" />
<rect x="252" y="45" width="18" height="9" fill="#102D26" />
<rect x="270" y="45" width="9" height="9" fill="#F1FAF5" />
<rect x="324" y="45" width="9" height="9" fill="#F1FAF5" />
<rect x="9" y="54" width="9" height="9" fill="#F1FAF5" />
<rect x="36" y="54" width="9" height="9" fill="#102D26" />
<rect x="63" y="54" width="18" height="9" fill="#F1FAF5" />
<rect x="81" y="54" width="9" height="9" fill="#102D26" />
<rect x="90" y="54" width="9" height="9" fill="#F1FAF5" />
<rect x="99" y="54" width="9" height="9" fill="#102D26" />
<rect x="117" y="54" width="9" height="9" fill="#102D26" />
<rect x="135" y="54" width="9" height="9" fill="#102D26" />
<rect x="144" y="54" width="9" height="9" fill="#F1FAF5" />
<rect x="153" y="54" width="9" height="9" fill="#102D26" />
<rect x="162" y="54" width="9" height="9" fill="#F1FAF5" />
<rect x="171" y="54" width="9" height="9" fill="#102D26" />
<rect x="180" y="54" width="9" height="9" fill="#F1FAF5" />
<rect x="189" y="54" width="9" height="9" fill="#102D26" />
<rect x="198" y="54" width="9" height="9" fill="#F1FAF5" />
<rect x="216" y="54" width="9" height="9" fill="#F1FAF5" />
<rect x="234" y="54" width="9" height="9" fill="#F1FAF5" />
<rect x="243" y="54" width="9" height="9" fill="#102D26" />
<rect x="252" y="54" width="9" height="9" fill="#F1FAF5" />
<rect x="261" y="54" width="18" height="9" fill="#102D26" />
<rect x="297" y="54" width="9" height="9" fill="#F1FAF5" />
<rect x="324" y="54" width="9" height="9" fill="#102D26" />
</svg>